<?xml version="1.0" encoding="UTF-8" standalone="no"?>
<svg xmlns="http://www.w3.org/2000/svg" viewBox="0 0 2560 1440" preserveAspectRatio="xMidYMid slice">
<style type="text/css">path { transition: opacity 0.2s ease; } path:hover { opacity: 0.5; }</style>
<g style="fill-rule:evenodd"><path d="m0 320v-320h320l203.65 1053.1z" style="fill:#00231b;stroke:#00231b"/><path d="m389.84 361.18l410.16 758.82-134.07 132.3-142.28-199.19z" style="fill:#0f0f0f;stroke:#0f0f0f"/><path d="M 1280,960 389.84,361.18 800,1120 Z" style="fill:#070000;stroke:#070000"/><path d="m389.84 361.18l-69.84-361.18h480l121.63 718.92z" style="fill:#0c0c0c;stroke:#0c0c0c"/><path d="M 921.63,718.92 845.8,270.69 1600,480 Z" style="fill:#00140f;stroke:#00140f"/><path d="m800 0l45.8 270.69 478.6-66.24 435.6-204.45" style="fill:#00231b;stroke:#00231b"/><path d="m1600 480l-678.37 238.92 358.37 241.08h480l-160-480z" style="fill:#080808;stroke:#080808"/><path d="m523.65 1053.11l-203.65 386.93h480z" style="fill:#070000;stroke:#070000"/><path d="m0 320l523.65 733.11-203.65 386.93h-320z" style="fill:#0c0c0c;stroke:#0c0c0c"/><path d="m1760 960l800 320v160h-1120z" style="fill:#0f0f0f;stroke:#0f0f0f"/><path d="m1600 480l160 480 800 320z" style="fill:#0c0c0c;stroke:#0c0c0c"/><path d="m1280 960l160 480 320-480z" style="fill:#070000;stroke:#070000"/><path d="m2135.5 926.26l424.5-286.26v640z" style="fill:#00231b;stroke:#00231b"/><path d="M 2135.5,926.26 1600,480 1760,0 Z" style="fill:#00140f;stroke:#00140f"/><path d="m2135.5 926.26l-266.8-658.03 691.3 211.77v160z" style="fill:#0f0f0f;stroke:#0f0f0f"/><path d="m2560 480l-691.3-211.77-108.7-268.23h800z" style="fill:#1a1a1a;stroke:#1a1a1a"/><path d="m1280 960l-480 160-134.07 132.3 134.07 187.74" style="fill:#000a08;stroke:#000a08"/><path d="m1280 960l160 480h-640z" style="fill:#00140f;stroke:#00140f"/><path d="m845.8 270.69l478.6-66.24 275.6 275.55" style="fill:#000a08;stroke:#000a08"/><path d="m1600 480l160-480-435.55 204.45z" style="fill:#080808;stroke:#080808"/></g>
</svg>
